<?xml version="1.0" encoding="UTF-8" standalone="no"?>
<!-- Created with Inkscape (http://www.inkscape.org/) -->

<svg
   width="139.58401"
   height="138.43201"
   viewBox="0 0 139.58401 138.43201"
   version="1.1"
   id="svg1"
   xmlns="http://www.w3.org/2000/svg"
   xmlns:svg="http://www.w3.org/2000/svg">
  <defs
     id="defs1" />
  <g
     id="layer1"
     transform="translate(-20.208,-20.784002)">
    <path
       d="m 43.44,159.216 q -6.528,0 -11.904,-3.072 -5.184,-3.264 -8.256,-8.448 -3.072,-5.376 -3.072,-11.712 v -32.64 q 0,-3.839997 1.536,-7.679997 1.536,-4.032 4.224,-7.68 -2.688,-3.648 -4.224,-7.68 -1.536,-4.032 -1.536,-7.872 v -28.224 q 0,-6.528 3.072,-11.712 3.072,-5.376 8.256,-8.448 5.376,-3.264 11.904,-3.264 h 93.12 q 5.376,0 9.984,2.88 4.8,2.688 8.256,7.296 3.648,4.416 4.992,9.408 v 32.064 q 0,7.68 -5.76,15.552 5.76,7.488 5.76,15.359997 v 32.64 q 0,6.336 -3.264,11.712 -3.072,5.184 -8.448,8.448 -5.184,3.072 -11.52,3.072 z m 0,-15.744 v 0 h 93.12 q 3.072,0 5.184,-2.112 2.304,-2.304 2.304,-5.376 v -32.64 q 0,-3.072 -2.304,-5.183997 -2.112,-2.304 -5.184,-2.304 H 43.44 q -3.072,0 -5.376,2.304 -2.112,2.111997 -2.112,5.183997 v 32.64 q 0,3.072 2.112,5.376 2.304,2.112 5.376,2.112 z m 0,-61.247997 v 0 h 93.12 q 3.072,0 5.184,-2.112 2.304,-2.304 2.304,-5.376 v -30.336 q 0,-3.072 -2.304,-5.184 -2.112,-2.304 -5.184,-2.304 H 43.44 q -3.072,0 -5.376,2.304 -2.112,2.112 -2.112,5.184 v 30.336 q 0,3.072 2.112,5.376 2.304,2.112 5.376,2.112 z"
       id="text1"
       style="font-size:192px;font-family:Orbitron;-inkscape-font-specification:Orbitron;fill:#ffffff;stroke:#ffffff;stroke-width:0;stroke-linejoin:round"
       aria-label="8" />
  </g>
</svg>
