<?xml version="1.0" encoding="UTF-8" standalone="no"?>
<svg
   viewBox="0 0 512 512"
   style="height: 512px; width: 512px;"
   version="1.1"
   id="svg1"
   xmlns="http://www.w3.org/2000/svg"
   xmlns:svg="http://www.w3.org/2000/svg">
  <defs
     id="defs1" />
  <g
     class=""
     transform="translate(0,0)"
     style=""
     id="g1">
    <path
       d="M 256,10.263734 122.78301,86.388191 256,162.51265 389.21699,86.388191 Z M 156.34287,118.9806 122.78301,138.15812 256,214.28259 389.21699,138.15812 355.65714,118.9806 256,175.92754 Z"
       fill="#ffffff"
       fill-opacity="1"
       id="path1"
       style="stroke-width:0.647125" />
    <path
       d="M 156.34287,170.61265 122.78301,189.79017 256,265.91462 389.21699,189.79017 355.65715,170.61265 256,227.55959 Z"
       fill="#ffffff"
       fill-opacity="1"
       id="path1-3"
       style="stroke-width:0.647125" />
    <path
       d="M 156.34287,221.23578 122.78301,240.41331 256,316.53776 389.21699,240.41331 355.65715,221.23578 256,278.18271 Z"
       fill="#ffffff"
       fill-opacity="1"
       id="path1-3-9"
       style="stroke-width:0.647125" />
    <path
       d="M 156.34287,270.6302 122.78301,289.80772 256,365.93219 389.21699,289.80772 355.65715,270.6302 256,327.57713 Z"
       fill="#ffffff"
       fill-opacity="1"
       id="path1-3-9-5"
       style="stroke-width:0.647125" />
    <path
       d="M 156.34287,319.59853 122.78301,338.77606 256,414.90052 389.21699,338.77606 355.65715,319.59853 256,376.54546 Z"
       fill="#ffffff"
       fill-opacity="1"
       id="path1-3-9-5-2"
       style="stroke-width:0.647125" />
    <path
       d="M 156.34287,366.03394 122.78301,385.21146 256,461.33592 389.21699,385.21146 355.65715,366.03394 256,422.98087 Z"
       fill="#ffffff"
       fill-opacity="1"
       id="path1-3-9-5-2-4"
       style="stroke-width:0.647125" />
    <path
       d="M 156.34287,412.20891 122.78301,431.38643 256,507.51089 389.21699,431.38643 355.65715,412.20891 256,469.15585 Z"
       fill="#ffffff"
       fill-opacity="1"
       id="path1-3-9-5-2-4-4"
       style="stroke-width:0.647125" />
  </g>
</svg>
