<?xml version="1.0" encoding="UTF-8" standalone="no"?>
<svg
   viewBox="0 0 512 512"
   style="height: 512px; width: 512px;"
   version="1.1"
   id="svg1"
   xmlns="http://www.w3.org/2000/svg"
   xmlns:svg="http://www.w3.org/2000/svg">
  <defs
     id="defs1" />
  <g
     class=""
     transform="translate(0,0)"
     style=""
     id="g1">
    <path
       d="M 256,10.263734 144.65643,73.889019 256,137.51431 367.34357,73.889019 Z M 172.70597,101.12995 144.65643,117.15864 256,180.78394 367.34357,117.15864 339.29405,101.12995 256,148.72655 Z"
       fill="#ffffff"
       fill-opacity="1"
       id="path1"
       style="stroke-width:0.540871" />
    <path
       d="M 172.70597,144.28434 144.65643,160.31302 256,223.9383 367.34357,160.31302 339.29406,144.28434 256,191.88093 Z"
       fill="#ffffff"
       fill-opacity="1"
       id="path1-3"
       style="stroke-width:0.540871" />
    <path
       d="M 172.70597,186.59546 144.65643,202.62415 256,266.24943 367.34357,202.62415 339.29406,186.59546 256,234.19205 Z"
       fill="#ffffff"
       fill-opacity="1"
       id="path1-3-9"
       style="stroke-width:0.540871" />
    <path
       d="M 172.70597,227.87961 144.65643,243.9083 256,307.5336 367.34357,243.9083 339.29406,227.87961 256,275.4762 Z"
       fill="#ffffff"
       fill-opacity="1"
       id="path1-3-9-5"
       style="stroke-width:0.540871" />
    <path
       d="M 172.70597,268.80764 144.65643,284.83634 256,348.46163 367.34357,284.83634 339.29406,268.80764 256,316.40423 Z"
       fill="#ffffff"
       fill-opacity="1"
       id="path1-3-9-5-2"
       style="stroke-width:0.540871" />
    <path
       d="M 172.70597,307.61864 144.65643,323.64733 256,387.27262 367.34357,323.64733 339.29406,307.61864 256,355.21523 Z"
       fill="#ffffff"
       fill-opacity="1"
       id="path1-3-9-5-2-4"
       style="stroke-width:0.540871" />
    <path
       d="M 172.70597,346.21196 144.65643,362.24065 256,425.86594 367.34357,362.24065 339.29406,346.21196 256,393.80856 Z"
       fill="#ffffff"
       fill-opacity="1"
       id="path1-3-9-5-2-4-4"
       style="stroke-width:0.540871" />
    <path
       d="M 172.70597,386.37822 144.65643,402.40691 256,466.0322 367.34357,402.40691 339.29406,386.37822 256,433.97482 Z"
       fill="#ffffff"
       fill-opacity="1"
       id="path1-3-9-5-2-4-4-7"
       style="stroke-width:0.540871" />
    <path
       d="M 172.70597,426.52866 144.65643,442.55735 256,506.18263 367.34357,442.55735 339.29406,426.52866 256,474.12526 Z"
       fill="#ffffff"
       fill-opacity="1"
       id="path1-3-9-5-2-4-4-9"
       style="stroke-width:0.540871" />
  </g>
</svg>
