<?xml version="1.0" encoding="UTF-8" standalone="no"?>
<svg
   viewBox="0 0 512 512"
   style="height: 512px; width: 512px;"
   version="1.1"
   id="svg1"
   sodipodi:docname="teledirigidosAllWild.svg"
   inkscape:version="1.3.2 (091e20e, 2023-11-25)"
   xmlns:inkscape="http://www.inkscape.org/namespaces/inkscape"
   xmlns:sodipodi="http://sodipodi.sourceforge.net/DTD/sodipodi-0.dtd"
   xmlns="http://www.w3.org/2000/svg"
   xmlns:svg="http://www.w3.org/2000/svg">
  <defs
     id="defs1" />
  <sodipodi:namedview
     id="namedview1"
     pagecolor="#505050"
     bordercolor="#eeeeee"
     borderopacity="1"
     inkscape:showpageshadow="0"
     inkscape:pageopacity="0"
     inkscape:pagecheckerboard="0"
     inkscape:deskcolor="#505050"
     inkscape:zoom="0.89453125"
     inkscape:cx="256"
     inkscape:cy="256"
     inkscape:window-width="1392"
     inkscape:window-height="1027"
     inkscape:window-x="0"
     inkscape:window-y="25"
     inkscape:window-maximized="0"
     inkscape:current-layer="g1" />
  <g
     class=""
     transform="translate(0,0)"
     style=""
     id="g1">
    <path
       d="m 0,0 v 53.84046 c 36.372248,54.42499 80.530716,109.07117 141.99798,157.25585 12.73943,38.86371 43.0801,69.03838 84.57004,85.1526 -10.78373,-12.95457 -17.18086,-28.59484 -17.54642,-47.55275 21.93302,0.15798 40.02775,5.84536 55.01531,15.16633 C 245.57662,228.31641 211.58047,202.24928 167.34888,191.1905 93.727079,134.00082 45.547559,66.668644 4.6242104,0 Z m 324.53547,207.62069 -31.43731,73.30391 c -15.71866,13.27054 -31.43732,27.01502 -46.97321,40.60152 -27.23348,9.16299 -57.02581,18.64195 -85.17319,27.64695 l 59.03637,51.02837 74.20669,-5.52939 c 52.27369,58.9275 128.85645,101.10885 216.77129,115.1693 C 494.69913,433.2198 445.89815,366.86712 377.3575,321.84209 l 6.21436,-63.19303 z"
       fill="#ffffff"
       fill-opacity="1"
       id="path1"
       sodipodi:nodetypes="ccccccccccccccccccc"
       style="stroke-width:1.69928" />
  </g>
</svg>
