<?xml version="1.0" encoding="UTF-8" standalone="no"?>
<svg
   viewBox="0 0 512 512"
   style="height: 512px; width: 512px;"
   version="1.1"
   id="svg1"
   xmlns="http://www.w3.org/2000/svg"
   xmlns:svg="http://www.w3.org/2000/svg">
  <defs
     id="defs1" />
  <g
     class=""
     transform="matrix(1.6909308,0,0,1.0730341,-29.32074,-18.649333)"
     id="g1">
    <path
       d="m 17.34,17.38 v 34.08 c 19.9,34.45 44.06,69.04 77.69,99.54 6.97,24.6 23.57,43.7 46.27,53.9 -5.9,-8.2 -9.4,-18.1 -9.6,-30.1 12,0.1 21.9,3.7 30.1,9.6 -10.1,-22.5 -28.7,-39 -52.9,-46 C 68.62,102.2 42.26,59.58 19.87,17.38 Z M 194.9,148.8 177.7,195.2 c -8.6,8.4 -17.2,17.1 -25.7,25.7 -14.9,5.8 -31.2,11.8 -46.6,17.5 l 32.3,32.3 40.6,-3.5 c 28.6,37.3 70.5,64 118.6,72.9 -8.9,-48.5 -35.6,-90.5 -73.1,-119 l 3.4,-40 z M 17.34,247.2 v 49.7 c 14.05,24.6 33.51,44.5 56.99,61 12.88,23.6 34.67,38.8 60.27,43 -7.8,-6.4 -13.8,-15.1 -17.1,-26.6 11.7,-3 22.2,-2.1 31.6,1.5 -15,-18.5 -36.3,-29.5 -60.47,-30.7 C 53.01,321.2 28.45,290.9 17.34,247.2 Z m 154.56,85.7 -4.6,49.3 c -6.1,10.3 -12.2,20.9 -18.2,31.4 -13,9.6 -27,19.4 -40.5,28.9 l 39.6,22.9 38.3,-13.9 c 37.3,28.7 84.6,43.6 133.4,39.8 C 298.8,446.6 262.2,413 218.5,395.2 l -7,-39.5 z"
       fill="#ffffff"
       fill-opacity="1"
       id="path1" />
  </g>
</svg>
