<?xml version="1.0" encoding="UTF-8" standalone="no"?>
<svg
   viewBox="0 0 512 512"
   style="height: 512px; width: 512px;"
   version="1.1"
   id="svg1"
   xmlns="http://www.w3.org/2000/svg"
   xmlns:svg="http://www.w3.org/2000/svg">
  <defs
     id="defs1" />
  <g
     class=""
     transform="matrix(1.0753901,0,0,1.0753901,-18.647264,-18.69028)"
     id="g1">
    <path
       d="m 17.34,17.38 v 34.08 c 19.9,34.45 44.06,69.04 77.69,99.54 6.97,24.6 23.57,43.7 46.27,53.9 -5.9,-8.2 -9.4,-18.1 -9.6,-30.1 12,0.1 21.9,3.7 30.1,9.6 -10.1,-22.5 -28.7,-39 -52.9,-46 C 68.62,102.2 42.26,59.58 19.87,17.38 Z m 26.96,0 C 98.65,32.32 173.5,71.74 240.5,124.5 l 16.3,-11.6 C 205.6,71.81 149.6,38.58 99.97,17.38 Z m 110.1,0 c 28.4,8.14 52.8,19.57 75.3,32.83 13,21.96 34.1,36.14 58.6,40.15 -7.8,-6.38 -13.7,-15.05 -17,-26.58 11.7,-2.98 22.1,-2.09 31.5,1.46 -15.5,-19.08 -37.8,-30.23 -63,-30.76 -10.3,-6.07 -21,-11.82 -32.3,-17.1 z m 171.3,4.96 -4.7,49.28 c -6.1,10.46 -12.1,20.92 -18.2,31.38 -14.6,11.2 -26.3,18.7 -40.6,29 l 39.6,22.8 h 0.1 l 38.3,-13.9 c 37.3,28.7 84.7,43.6 133.5,39.8 -21.2,-44.6 -57.8,-78.2 -101.5,-96.03 l -7,-39.5 z M 194.9,148.8 177.7,195.2 c -8.6,8.4 -17.2,17.1 -25.7,25.7 -14.9,5.8 -31.2,11.8 -46.6,17.5 l 32.3,32.3 40.6,-3.5 c 28.6,37.3 70.5,64 118.6,72.9 -8.9,-48.5 -35.6,-90.5 -73.1,-119 l 3.4,-40 z m 123.3,20 -18.2,6.6 c 17.1,17.7 33.5,38.1 44.3,52.6 1.1,24.4 12.1,46.1 30.6,61.3 -3.5,-9.5 -4.3,-19.9 -1.4,-31.6 11.6,3.3 20.2,9.3 26.6,17.1 -4.1,-25.4 -19,-47 -42.3,-59.9 -12,-15.9 -25.3,-31.3 -39.6,-46.1 z M 17.34,247.2 v 49.7 c 14.05,24.6 33.51,44.5 56.99,61 12.88,23.6 34.67,38.8 60.27,43 -7.8,-6.4 -13.8,-15.1 -17.1,-26.6 11.7,-3 22.2,-2.1 31.6,1.5 -15,-18.5 -36.3,-29.5 -60.47,-30.7 C 53.01,321.2 28.45,290.9 17.34,247.2 Z m 423.96,1.8 -28.7,40.4 c -10.5,6 -20.9,12.1 -31.4,18.1 -16.1,1.9 -33.2,3.3 -49.6,4.8 l 22.9,39.6 40.1,7.1 c 17.9,43.5 51.5,80.1 95.7,101.2 4,-49.2 -10.9,-96.7 -39.9,-133.9 l 13.7,-37.7 z m -269.4,83.9 -4.6,49.3 c -6.1,10.3 -12.2,20.9 -18.2,31.4 -13,9.6 -27,19.4 -40.5,28.9 l 39.6,22.9 38.3,-13.9 c 37.3,28.7 84.6,43.6 133.4,39.8 C 298.8,446.6 262.2,413 218.5,395.2 l -7,-39.5 z"
       fill="#ffffff"
       fill-opacity="1"
       id="path1" />
  </g>
</svg>
