<?xml version="1.0" encoding="UTF-8" standalone="no"?>
<svg
   viewBox="0 0 512 512"
   style="height: 512px; width: 512px;"
   version="1.1"
   id="svg1"
   sodipodi:docname="cambioLugaresTodos.svg"
   xml:space="preserve"
   inkscape:version="1.3.2 (091e20e, 2023-11-25)"
   xmlns:inkscape="http://www.inkscape.org/namespaces/inkscape"
   xmlns:sodipodi="http://sodipodi.sourceforge.net/DTD/sodipodi-0.dtd"
   xmlns="http://www.w3.org/2000/svg"
   xmlns:svg="http://www.w3.org/2000/svg"><defs
     id="defs1" /><sodipodi:namedview
     id="namedview1"
     pagecolor="#505050"
     bordercolor="#eeeeee"
     borderopacity="1"
     inkscape:showpageshadow="0"
     inkscape:pageopacity="0"
     inkscape:pagecheckerboard="0"
     inkscape:deskcolor="#505050"
     inkscape:zoom="0.89453125"
     inkscape:cx="256"
     inkscape:cy="256"
     inkscape:window-width="1392"
     inkscape:window-height="1027"
     inkscape:window-x="0"
     inkscape:window-y="25"
     inkscape:window-maximized="0"
     inkscape:current-layer="g1" /><g
     class=""
     transform="translate(0,0)"
     style=""
     id="g1"><path
       d="m 98.605808,134.9869 c -17.2,0 -32.5,18.4 -32.5,42.5 0,12.4 4.1,23.4 10.3,31 l 6.2,7.8 -9.9,1.5 c -9.4,1.5 -15.8,6 -21.1,13.1 -5.3,7.1 -9.2,16.9 -11.6,28.4 -4.7,20.9 -4.8,46.6 -4.8,69 h 25.9 l 6.3,98 h 59.730002 l 7.2,-98 h 27.3 c -0.1,-22.1 -1.2,-47.5 -6.3,-68.3 -2.8,-11.3 -6.7,-21.2 -12,-28.4 -5.1,-7.1 -11.4,-11.6 -19.9,-13.2 l -9.7,-1.8 6.4,-7.5 c 6.4,-7.8 10.8,-18.9 10.8,-31.6 0,-22.7 -13.7,-40.4 -29.13,-42.5 z m 160.030002,0 c -17.2,0 -32.5,18.4 -32.5,42.5 0,12.4 4.1,23.4 10.3,31 l 6.2,7.8 -9.9,1.5 c -9.4,1.5 -15.8,6 -21.1,13.1 -5.3,7.1 -9.2,16.9 -11.6,28.4 -4.7,20.9 -4.8,46.6 -4.8,69 h 25.9 l 6.3,98 h 59.7 l 7.2,-98 h 27.3 c -0.1,-22.1 -1.2,-47.5 -6.3,-68.3 -2.8,-11.3 -6.7,-21.2 -12,-28.4 -5.1,-7.1 -11.4,-11.6 -19.9,-13.2 l -9.7,-1.8 6.4,-7.5 c 6.4,-7.8 10.8,-18.9 10.8,-31.6 0,-22.7 -13.7,-40.4 -29.1,-42.5 z m 160,0 c -17.1,0 -32.4,18.4 -32.4,42.5 0,12.4 4.1,23.4 10.3,31 l 6.2,7.8 -9.9,1.5 c -9.4,1.5 -15.9,6 -21.2,13.1 -5.3,7.1 -9.2,16.9 -11.6,28.4 -4.7,20.9 -4.8,46.6 -4.8,69 h 25.9 l 6.4,98 h 59.6 l 7.3,-98 h 27.2 c -0.1,-22.1 -1.2,-47.5 -6.2,-68.3 -2.8,-11.3 -6.8,-21.2 -12.1,-28.4 -5.1,-7.1 -11.4,-11.6 -19.8,-13.2 l -9.7,-1.8 6.3,-7.5 c 6.4,-7.8 10.8,-18.9 10.8,-31.6 0,-22.7 -13.7,-40.4 -29.1,-42.5 z"
       fill="#ffffff"
       fill-opacity="1"
       id="path1"
       sodipodi:nodetypes="sscccsccccccccccccscssscccsccccccccccccscssscccsccccccccccccscs" /><path
       d="m 249.77018,17.246 c -45.07747,0 -86.3979,6.337091 -118.5274,16.864061 10.40612,-1.601506 21.3645,-2.734968 32.67481,-3.391424 7.79805,-0.452649 15.73373,-0.680123 23.73736,-0.689314 24.00914,-0.02827 48.62805,1.903195 71.98387,5.587577 61.69798,9.73357 115.49424,31.582061 133.89092,63.227991 l -43.06698,2.903619 64.74855,25.2151 64.74594,-33.944799 -45.15761,3.04447 c 0.4913,-1.96087 0.78399,-3.94288 0.78399,-5.95223 C 435.58363,49.88087 352.09171,17.246 249.77279,17.246 h -0.002 z m -61.99153,17.073153 c -6.90257,0.0092 -13.70583,0.206793 -20.36187,0.593269 -26.54229,1.540616 -51.20737,6.084342 -70.868869,14.220542 -20.242527,11.676977 -32.085946,25.784927 -32.085946,40.977407 0,3.67243 1.17598,7.20976 2.511369,10.737209 C 79.50579,69.804791 147.72566,46.019563 230.18446,46.019563 c 30.23835,0 58.51761,3.211284 82.82641,8.808052 C 294.18823,47.94183 273.0145,42.730158 251.2824,39.301972 230.08254,35.957421 208.48546,34.290661 187.77777,34.318693 Z"
       fill="#ffffff"
       fill-opacity="1"
       id="path1-7"
       style="stroke-width:0.447384" /><path
       d="m 346.84814,498.04512 c 23.24663,0 44.55575,-3.49609 61.12505,-9.30369 -5.36647,0.88353 -11.01775,1.50885 -16.85052,1.87101 -4.02149,0.24971 -8.11395,0.37521 -12.24146,0.38028 -12.38161,0.0156 -25.07767,-1.04997 -37.12236,-3.0826 -31.8179,-5.36989 -59.56084,-17.42343 -69.04809,-34.88209 l 22.20982,-1.60189 -33.39109,-13.91086 -33.38975,18.72693 23.28796,-1.6796 c -0.25336,1.08179 -0.4043,2.17524 -0.4043,3.28377 0,22.19449 43.05712,40.19874 95.8234,40.19874 h 0.001 z m 31.96928,-9.41904 c 3.55968,-0.005 7.06815,-0.11409 10.5007,-0.3273 13.68796,-0.84994 26.40784,-3.35666 36.54736,-7.8453 10.43915,-6.44204 16.54685,-14.22522 16.54685,-22.60672 0,-2.02604 -0.60646,-3.97754 -1.29512,-5.92359 -6.46304,17.12592 -41.6443,30.24794 -84.16863,30.24794 -15.59404,0 -30.17777,-1.77163 -42.71391,-4.8593 9.70691,3.7988 20.62629,6.67402 31.83362,8.56531 10.93285,1.84514 22.07055,2.76467 32.74959,2.74921 z"
       fill="#ffffff"
       fill-opacity="1"
       id="path1-7-8"
       style="stroke-width:0.238631" /><path
       d="m 177.62928,499.99272 c 19.85072,0 38.04697,-3.49609 52.1958,-9.30369 -4.58253,0.88353 -9.40826,1.50885 -14.38897,1.87101 -3.43402,0.24971 -6.92865,0.37521 -10.4532,0.38028 -10.57289,0.0156 -21.41429,-1.04997 -31.69947,-3.0826 -27.16988,-5.36989 -50.86009,-17.42343 -58.96142,-34.88209 l 18.96537,-1.60189 -28.51326,-13.91086 -28.512121,18.72693 19.886015,-1.6796 c -0.216349,1.08179 -0.34524,2.17524 -0.34524,3.28377 0,22.19449 36.767266,40.19874 81.825356,40.19874 h 8.5e-4 z m 27.29915,-9.41904 c 3.03968,-0.005 6.03563,-0.11409 8.96674,-0.3273 11.6884,-0.84994 22.55014,-3.35666 31.20846,-7.8453 8.91418,-6.44204 14.12966,-14.22522 14.12966,-22.60672 0,-2.02604 -0.51787,-3.97754 -1.10593,-5.92359 -5.5189,17.12592 -35.56083,30.24794 -71.87313,30.24794 -13.31603,0 -25.76935,-1.77163 -36.47419,-4.8593 8.28891,3.7988 17.61317,6.67402 27.18331,8.56531 9.33576,1.84514 18.84645,2.76467 27.96548,2.74921 z"
       fill="#ffffff"
       fill-opacity="1"
       id="path1-7-8-0"
       style="stroke-width:0.220513" /></g></svg>
