<?xml version="1.0" encoding="UTF-8" standalone="no"?>
<!-- Created with Inkscape (http://www.inkscape.org/) -->

<svg
   width="0.91643018in"
   height="0.95707893in"
   viewBox="0 0 87.977297 91.879577"
   version="1.1"
   id="svg1"
   xml:space="preserve"
   xmlns="http://www.w3.org/2000/svg"
   xmlns:svg="http://www.w3.org/2000/svg"><defs
     id="defs1"><style
       id="style1-1">.cls-1{fill-rule:evenodd;}</style></defs><style
     type="text/css"
     id="style1">.st0{fill-rule:evenodd;clip-rule:evenodd;}</style><style
     type="text/css"
     id="style1-0">.st0{fill-rule:evenodd;clip-rule:evenodd;}</style><style
     type="text/css"
     id="style1-2">.st0{fill-rule:evenodd;clip-rule:evenodd;}</style><g
     id="layer-MC5"
     transform="translate(-863.25001,-528.75001)"><path
       d="m 863.25019,605.49387 c 19.3147,0 20.098,-0.26117 20.098,-0.26117 24.91178,40.48677 44.63444,-14.6008 47.19134,-34.53026 l -7.29738,-0.0318 14.276,-24.92063 13.70917,24.84412 -7.10004,0.29278 c -16.37783,57.1461 -60.27387,59.66373 -80.87729,34.60698 z"
       fill="#ffffff"
       fill-opacity="1"
       id="path1-30"
       style="stroke-width:0.201363" /><path
       d="m 951.22712,543.88573 c -19.3147,0 -20.098,0.26117 -20.098,0.26117 -24.91178,-40.48677 -44.63444,14.6008 -47.19134,34.53026 l 7.29738,0.0318 -14.276,24.92063 -13.70917,-24.84412 7.10004,-0.29278 c 16.37783,-57.1461 60.27387,-59.66373 80.87729,-34.60698 z"
       fill="#ffffff"
       fill-opacity="1"
       id="path1-30-2"
       style="stroke-width:0.201363" /></g><style
     type="text/css"
     id="style1-26">.st0{fill-rule:evenodd;clip-rule:evenodd;}</style><style
     type="text/css"
     id="style1-8">.st0{fill-rule:evenodd;clip-rule:evenodd;}</style><path
     d="m 31.577116,30.145577 -0.06072,4.340689 -2.579861,1.469395 0.06277,0.425023 c 1.278467,8.635514 6.239836,17.142837 14.625723,24.948535 l 0.431777,0.404783 0.431777,-0.404783 c 8.311676,-7.7922 13.169155,-16.326518 14.491461,-24.935038 l 0.06072,-0.425033 -2.610894,-1.498394 -0.05401,-4.091071 C 48.33404,31.445628 38.996891,31.281685 31.577097,30.145577 Z m 1.241362,1.464666 c 2.198006,0.333948 4.377123,0.588295 6.55624,0.756957 v 2.148756 l -3.285545,1.911954 -3.311177,-1.926794 z m 22.316047,0.240177 0.03377,2.650696 -3.31253,1.926794 -3.319273,-1.9295 v -1.995604 c 2.165629,-0.109973 4.358234,-0.31507 6.598074,-0.652386 z m -14.471229,0.615952 c 2.192604,0.133581 4.385219,0.166638 6.604818,0.09576 v 1.936243 l -3.299042,1.922756 -3.305776,-1.92478 z m -8.532966,3.124978 3.317931,1.929491 v 3.872487 L 32.1843,43.295843 c -0.878395,-2.219599 -1.50109,-4.445942 -1.864057,-6.679029 z m 23.712574,0 1.814807,1.032208 c -0.371054,2.233086 -0.998478,4.459429 -1.862033,6.672285 l -3.272047,-1.902515 v -3.872487 z m -7.940622,0 3.31253,1.929491 v 3.872487 l -3.31253,1.9295 -3.285545,-1.909259 v -3.91297 z m -7.879908,0.01353 3.299042,1.916002 v 3.892729 l -3.285545,1.909259 -3.31253,-1.9295 v -3.872488 z m -3.85899,6.975872 3.319273,1.9295 v 3.872487 l -3.541906,2.064424 c -1.27509,-1.936243 -2.347779,-3.892728 -3.216725,-5.8627 z m 7.906893,0 3.285535,1.916003 v 3.906225 l -3.285535,1.909259 -3.319273,-1.9295 v -3.872487 z m 7.859658,0 3.353012,1.949741 c -0.863555,1.976716 -1.922756,3.939944 -3.177596,5.882942 L 48.6444,48.40298 v -3.906225 z m -4.486415,7.265971 2.745819,1.592175 v 1.713611 c -0.802831,1.059202 -1.659632,2.11165 -2.5839,3.157355 -0.971494,-0.566705 -1.936244,-1.140159 -2.907737,-1.706861 v -3.164108 z m -6.766737,0 2.745828,1.592175 v 3.157355 c -0.96475,0.566711 -2.00371,1.187382 -2.934722,1.727108 a 55.098605,55.098605 0 0 1 -2.556924,-3.0764 v -1.808066 z m 3.386741,5.862701 1.808063,1.052458 v 1.396527 c -0.762349,0.769093 -1.288578,1.295322 -1.814807,1.835038 -0.627425,-0.593686 -1.234608,-1.194126 -1.821551,-1.794565 v -1.430256 z"
     fill="#ffffff"
     fill-opacity="1"
     id="path1"
     style="stroke-width:0.067465" /><path
     style="fill:#ffffff;stroke:#ffffff;stroke-width:0;stroke-linejoin:round"
     d="m 41.42553,57.012059 2.424572,-2.21675 2.355297,1.80111 0.207821,2.355297 -2.008931,1.454744 -2.701665,-1.801111 z"
     id="path2" /><path
     style="fill:#ffffff;stroke:#ffffff;stroke-width:0;stroke-linejoin:round"
     d="m 36.576388,51.539456 1.731837,3.463673 2.286024,2.216751 3.463673,-1.454743 3.948587,1.316196 3.048033,-4.433502 -0.484915,-2.147477 -2.701665,-1.177649 -2.840212,1.246922 -1.593289,0.346368 -2.563118,-1.38547 -2.632392,0.346368 z"
     id="path3" /><path
     style="fill:#ffffff;stroke:#ffffff;stroke-width:0;stroke-linejoin:round"
     d="m 32.073613,44.404289 3.81004,-2.286024 3.463673,1.662563 4.364229,-1.59329 3.60222,1.454743 0.692734,0.900555 c 0,0 0.346368,2.493845 0.06927,2.632392 -0.277094,0.138547 -0.831282,3.325126 -0.831282,3.325126 l -5.40333,0.277094 c 0,0 -4.710595,0.831281 -4.987689,0.692734 -0.277094,-0.138547 -1.870384,-1.039102 -1.870384,-1.039102 z"
     id="path4" /></svg>
