<?xml version="1.0" encoding="UTF-8" standalone="no"?>
<svg
   viewBox="0 0 512 512"
   style="height: 512px; width: 512px;"
   version="1.1"
   id="svg1"
   xmlns="http://www.w3.org/2000/svg"
   xmlns:svg="http://www.w3.org/2000/svg">
  <defs
     id="defs1" />
  <g
     class=""
     transform="translate(0,0)"
     style=""
     id="g1">
    <path
       d="M 256,10.263734 109.32652,94.077662 256,177.89159 402.67348,94.077662 Z M 146.27632,129.96229 109.32652,151.07697 256,234.89091 402.67348,151.07697 365.72368,129.96229 256,192.66154 Z"
       fill="#ffffff"
       fill-opacity="1"
       id="path1"
       style="stroke-width:0.712492" />
    <path
       d="m 146.27631,186.80979 -36.9498,21.11468 146.67348,83.81392 146.6735,-83.81392 -36.9498,-21.11468 -109.7237,62.69925 z"
       fill="#ffffff"
       fill-opacity="1"
       id="path1-3"
       style="stroke-width:0.712492" />
    <path
       d="m 146.27631,242.54645 -36.9498,21.11469 146.67348,83.81392 146.6735,-83.81392 -36.9498,-21.11469 -109.7237,62.69925 z"
       fill="#ffffff"
       fill-opacity="1"
       id="path1-3-9"
       style="stroke-width:0.712492" />
    <path
       d="m 146.27631,296.93029 -36.9498,21.11468 146.67348,83.81394 146.6735,-83.81394 -36.9498,-21.11468 -109.7237,62.69925 z"
       fill="#ffffff"
       fill-opacity="1"
       id="path1-3-9-5"
       style="stroke-width:0.712492" />
    <path
       d="m 146.27631,350.84501 -36.9498,21.11468 146.67348,83.81393 146.6735,-83.81393 -36.9498,-21.11468 -109.7237,62.69924 z"
       fill="#ffffff"
       fill-opacity="1"
       id="path1-3-9-5-2"
       style="stroke-width:0.712492" />
    <path
       d="m 146.27631,401.97094 -36.9498,21.11468 146.67348,83.81393 146.6735,-83.81393 -36.9498,-21.11468 -109.7237,62.69925 z"
       fill="#ffffff"
       fill-opacity="1"
       id="path1-3-9-5-2-4"
       style="stroke-width:0.712492" />
  </g>
</svg>
