<?xml version="1.0" encoding="UTF-8" standalone="no"?>
<!-- Created with Inkscape (http://www.inkscape.org/) -->

<svg
   width="139.776"
   height="138.43201"
   viewBox="0 0 139.776 138.43201"
   version="1.1"
   id="svg1"
   xmlns="http://www.w3.org/2000/svg"
   xmlns:svg="http://www.w3.org/2000/svg">
  <defs
     id="defs1" />
  <g
     id="layer1"
     transform="translate(-20.112,-20.784002)">
    <path
       d="m 43.536,159.216 q -6.528,0 -11.904,-3.072 -5.184,-3.264 -8.448,-8.448 -3.072,-5.376 -3.072,-11.712 v -3.072 h 15.936 v 3.072 q 0,3.072 2.112,5.376 2.304,2.112 5.376,2.112 h 93.12 q 3.072,0 5.184,-2.112 2.304,-2.304 2.304,-5.376 V 103.92 q 0,-3.072 -2.304,-5.183997 -2.112,-2.304 -5.184,-2.304 H 46.608 v -15.744 h 83.904 q 3.072,0 5.184,-2.112 2.304,-2.304 2.304,-5.376 v -28.992 q 0,-3.072 -2.304,-5.184 -2.112,-2.304 -5.184,-2.304 H 43.536 q -3.072,0 -5.376,2.304 -2.112,2.112 -2.112,5.184 v 4.992 H 20.112 v -4.992 q 0,-6.528 3.072,-11.712 3.264,-5.376 8.448,-8.448 5.376,-3.264 11.904,-3.264 h 86.976 q 6.528,0 11.712,3.264 5.376,3.072 8.448,8.448 3.072,5.184 3.072,11.712 v 28.992 q 0,2.688 -0.768,5.376 -0.576,2.496 -1.536,4.608 4.8,4.608 6.528,10.176 1.92,5.568 1.92,10.559997 v 32.064 q 0,6.336 -3.264,11.712 -3.072,5.184 -8.448,8.448 -5.184,3.072 -11.52,3.072 z"
       id="text1"
       style="font-size:192px;font-family:Orbitron;-inkscape-font-specification:Orbitron;fill:#ffffff;stroke:#ffffff;stroke-width:0;stroke-linejoin:round"
       aria-label="3" />
  </g>
</svg>
