<?xml version="1.0" encoding="UTF-8" standalone="no"?>
<svg
   viewBox="0 0 512 512"
   style="height: 512px; width: 512px;"
   version="1.1"
   id="svg1"
   xmlns="http://www.w3.org/2000/svg"
   xmlns:svg="http://www.w3.org/2000/svg">
  <defs
     id="defs1" />
  <g
     class=""
     transform="translate(0,0)"
     style=""
     id="g1">
    <path
       d="m 298.9,24.31 c -14.9,0.3 -25.6,3.2 -32.7,8.4 l -97.3,52.1 -54.1,73.59 c -11.4,17.6 -3.3,51.6 32.3,29.8 l 39,-51.4 c 49.5,-42.69 150.5,-23.1 102.6,62.6 -23.5,49.6 -12.5,73.8 17.8,84 L 320.3,237 c 23.9,-53.8 68.5,-63.5 66.7,-106.9 l 107.2,7.7 -1,-112.09 z M 244.8,127.7 c -17.4,-0.3 -34.5,6.9 -46.9,17.3 l -39.1,51.4 c 10.7,8.5 21.5,3.9 32.2,-6.4 12.6,6.4 22.4,-3.5 30.4,-23.3 3.3,-13.5 8.2,-23 23.4,-39 z m -79.6,96 c -0.4,0 -0.9,0 -1.3,0.1 -3.3,0.7 -7.2,4.2 -9.8,12.2 -2.7,8 -3.3,19.4 -0.9,31.6 2.4,12.1 7.4,22.4 13,28.8 5.4,6.3 10.4,8.1 13.7,7.4 3.4,-0.6 7.2,-4.2 9.8,-12.1 2.7,-8 3.4,-19.5 1,-31.6 -2.5,-12.2 -7.5,-22.5 -13,-28.8 -4.8,-5.6 -9.2,-7.6 -12.5,-7.6 z m 82.6,106.8 c -7.9,0.1 -17.8,2.6 -27.5,7.3 -11.1,5.5 -19.8,13.1 -24.5,20.1 -4.7,6.9 -5.1,12.1 -3.6,15.2 1.5,3 5.9,5.9 14.3,6.3 8.4,0.5 19.7,-1.8 30.8,-7.3 11.1,-5.5 19.8,-13 24.5,-20 4.7,-6.9 5.1,-12.2 3.6,-15.2 -1.5,-3.1 -5.9,-5.9 -14.3,-6.3 -1.1,-0.1 -2.1,-0.1 -3.3,-0.1 z m -97.6,95.6 c -4.7,0.1 -9,0.8 -12.8,1.9 -8.5,2.5 -13.4,7 -15,12.3 -1.7,5.4 0,11.8 5.7,18.7 5.8,6.8 15.5,13.3 27.5,16.9 11.9,3.6 23.5,3.5 32.1,0.9 8.6,-2.5 13.5,-7 15.1,-12.3 1.6,-5.4 0,-11.8 -5.8,-18.7 -5.7,-6.8 -15.4,-13.3 -27.4,-16.9 -6.8,-2 -13.4,-2.9 -19.4,-2.8 z"
       fill="#ffffff"
       fill-opacity="1"
       id="path1" />
    <ellipse
       style="fill:#ffffff;stroke:#ffffff;stroke-width:0;stroke-linejoin:round"
       id="path2"
       cx="131.18173"
       cy="318.21594"
       rx="21.768148"
       ry="39.812798" />
    <ellipse
       style="fill:#ffffff;stroke:#ffffff;stroke-width:0;stroke-linejoin:round"
       id="path3"
       cx="125.45328"
       cy="395.26373"
       rx="37.807835"
       ry="17.758226" />
    <ellipse
       style="fill:#ffffff;stroke:#ffffff;stroke-width:0;stroke-linejoin:round"
       id="path4"
       cx="249.76085"
       cy="435.07654"
       rx="44.109142"
       ry="21.481726" />
    <ellipse
       style="fill:#ffffff;stroke:#ffffff;stroke-width:0;stroke-linejoin:round"
       id="path5"
       cx="237.44467"
       cy="276.11179"
       rx="18.044649"
       ry="41.817757" />
    <ellipse
       style="fill:#ffffff;stroke:#ffffff;stroke-width:0;stroke-linejoin:round"
       id="path6"
       cx="93.087479"
       cy="478.32642"
       rx="17.471804"
       ry="30.360838" />
    <ellipse
       style="fill:#ffffff;stroke:#ffffff;stroke-width:0;stroke-linejoin:round"
       id="path7"
       cx="47.546219"
       cy="423.33319"
       rx="16.612534"
       ry="37.234989" />
  </g>
</svg>
