<?xml version="1.0" encoding="UTF-8" standalone="no"?>
<svg
   viewBox="0 0 512 512"
   style="height: 512px; width: 512px;"
   version="1.1"
   id="svg1"
   xml:space="preserve"
   xmlns="http://www.w3.org/2000/svg"
   xmlns:svg="http://www.w3.org/2000/svg"><defs
     id="defs1" /><g
     class=""
     transform="translate(0,0)"
     style=""
     id="g1"><path
       d="M253.8 30.44c-9.5 1.2-18.1 12.3-18.1 26.8 0 8 2.7 15 6.7 19.9l4.9 5.8-7.5 1.4c-5.2 1-9 3.8-12.3 8.3-3.4 4.6-5.9 10.76-7.6 18.06-3.2 13.1-3.9 29.1-4 43.3h17.5l1.6 21.9c6.8-.3 13.8-.5 20.9-.5 7.5 0 14.8.2 21.9.6l1.5-22h16.6c0-14.3-.2-30.6-3.1-43.9-1.6-7.2-4-13.46-7.3-17.96s-7.4-7.2-13.3-8.1l-7.6-1.2 4.8-6c3.9-4.8 6.5-11.8 6.5-19.6 0-15.4-9.6-26.8-20.1-26.8zM61.9 174.4c-9.5 1.2-18.1 12.3-18.1 26.8 0 8 2.7 15 6.7 19.9l4.9 5.8-7.5 1.4c-5.2 1-9 3.8-12.3 8.3-3.4 4.6-5.9 10.8-7.6 18.1-3.2 13.1-3.9 29.1-4 43.3h17.5l4.7 64.3c12.2 2.8 25.2 2.6 36.94 0l4.3-64.3H104c0-14.3-.2-30.6-3.1-43.9-1.57-7.2-3.97-13.5-7.27-18-3.29-4.5-7.39-7.2-13.29-8.1l-7.64-1.2 4.8-6c3.94-4.8 6.54-11.8 6.54-19.6 0-15.4-9.64-26.8-20.14-26.8zm384 0c-9.5 1.2-18.1 12.3-18.1 26.8 0 8 2.7 15 6.7 19.9l4.9 5.8-7.5 1.4c-5.2 1-9 3.8-12.3 8.3-3.4 4.6-5.9 10.8-7.6 18.1-3.2 13.1-3.9 29.1-4 43.3h17.5l4.7 64.3c12.2 2.8 25.2 2.6 36.9 0l4.3-64.3H488c0-14.3-.2-30.6-3.1-43.9-1.6-7.2-4-13.5-7.3-18s-7.4-7.2-13.3-8.1l-7.6-1.2 4.8-6c3.9-4.8 6.5-11.8 6.5-19.6 0-15.4-9.6-26.8-20.1-26.8zm-190 19c-36.7 0-69.9 5.3-93.2 13.5-11.6 4.1-20.7 9-26.3 13.7-5.7 4.7-7.5 8.6-7.5 11.8 0 3.2 1.8 7.1 7.5 11.8 5.6 4.7 14.7 9.5 26.3 13.7 23.3 8.2 56.5 13.5 93.2 13.5s69.9-5.3 93.2-13.5c11.6-4.2 20.7-9 26.3-13.7 5.7-4.7 7.5-8.6 7.5-11.8 0-3.2-1.8-7.1-7.5-11.8-5.6-4.7-14.7-9.6-26.3-13.7-23.3-8.2-56.5-13.5-93.2-13.5zm-105 79.2v45.8h18v-39.8c-4.2-1.2-8.3-2.4-12.2-3.8-2-.7-3.9-1.4-5.8-2.2zm210 0c-1.9.8-3.8 1.5-5.8 2.2-3.9 1.4-8 2.6-12.2 3.8v39.8h18zm-107.1 19c-9.5 1.2-18.1 12.3-18.1 26.8 0 8 2.7 15 6.7 19.9l4.9 5.8-7.5 1.4c-5.2 1-9 3.8-12.3 8.3-3.4 4.6-5.9 10.8-7.6 18.1-3.2 13.1-3.9 29.1-4 43.3h17.5l4.7 64.3c12.2 2.8 25.2 2.6 36.9 0l4.3-64.3h16.6c0-14.3-.2-30.6-3.1-43.9-1.6-7.2-4-13.5-7.3-18s-7.4-7.2-13.3-8.1l-7.6-1.2 4.8-6c3.9-4.8 6.5-11.8 6.5-19.6 0-15.4-9.6-26.8-20.1-26.8z"
       fill="#fff"
       fill-opacity="1"
       id="path1" /></g><path
     d="m 202.03038,97.683623 c -26.21801,-4.414035 -27.34096,-4.238533 -27.34096,-4.238533 -24.56299,-60.650376 -63.92407,9.61889 -71.94936,36.08704 l 9.89827,1.71089 -25.073581,30.56504 -12.931303,-36.8567 9.704596,1.22517 C 119.62924,52.348585 179.7896,58.962777 202.03065,97.683669 Z"
     fill="#ffffff"
     fill-opacity="1"
     id="path1-6"
     style="stroke-width:0.277179" /><path
     d="m 78.756577,378.83101 c 13.995021,22.60547 14.868259,23.33298 14.868259,23.33298 -29.334199,58.492 49.429594,41.65963 74.607234,30.21169 l -5.25028,-8.56373 39.5106,-1.34868 -19.14359,34.0464 -5.4872,-8.09758 C 99.112144,470.65076 64.359417,421.10012 78.756438,378.83078 Z"
     fill="#ffffff"
     fill-opacity="1"
     id="path1-6-9"
     style="stroke-width:0.277179" /><path
     d="m 313.11702,424.37879 c 25.13205,8.67457 26.26855,8.68656 26.26855,8.68656 14.23158,63.86917 64.63522,1.0477 76.91288,-23.73592 l -9.48095,-3.31878 29.76803,-26.01481 6.68027,38.48386 -9.36997,-2.80779 c -46.97591,67.00224 -105.22358,50.5637 -120.77906,8.70683 z"
     fill="#ffffff"
     fill-opacity="1"
     id="path1-6-9-9"
     style="stroke-width:0.277179" /><path
     d="M 441.80097,162.01594 C 431.20954,137.62968 430.4503,136.78391 430.4503,136.78391 467.9072,83.129564 387.53989,88.436145 360.97536,96.136422 l 3.96142,9.230918 -39.29257,-4.359 23.84998,-30.932385 4.26304,8.803779 c 81.13219,-10.658497 108.38178,43.382926 88.04388,83.136416 z"
     fill="#ffffff"
     fill-opacity="1"
     id="path1-6-9-9-1"
     style="stroke-width:0.277179" /></svg>
