<?xml version="1.0" encoding="UTF-8" standalone="no"?>
<!-- Created with Inkscape (http://www.inkscape.org/) -->

<svg
   width="139.776"
   height="138.43201"
   viewBox="0 0 139.776 138.43201"
   version="1.1"
   id="svg1"
   xmlns="http://www.w3.org/2000/svg"
   xmlns:svg="http://www.w3.org/2000/svg">
  <defs
     id="defs1" />
  <g
     id="layer1"
     transform="translate(-20.112,-20.784002)">
    <path
       d="m 43.536,159.216 q -4.992,0 -9.6,-1.92 -4.416,-2.112 -7.68,-5.568 -3.264,-3.648 -4.8,-8.256 h 115.2 q 3.072,0 5.184,-2.112 2.304,-2.304 2.304,-5.376 v -27.84 q 0,-3.072 -2.304,-5.184 -2.112,-2.304 -5.184,-2.304 h -93.12 q -6.528,0 -11.904,-3.071997 -5.184,-3.264 -8.448,-8.448 -3.072,-5.376 -3.072,-11.712 v -33.216 q 0,-6.528 3.072,-11.712 3.264,-5.376 8.448,-8.448 5.376,-3.264 11.904,-3.264 h 93.12 q 6.336,0 11.52,3.264 5.376,3.072 8.448,8.448 3.264,5.184 3.264,11.712 V 135.984 q 0,6.336 -3.264,11.712 -3.072,5.184 -8.448,8.448 -5.184,3.072 -11.52,3.072 z m 0,-74.303997 v 0 h 100.608 v -40.704 q 0,-3.072 -2.304,-5.184 -2.112,-2.304 -5.184,-2.304 h -93.12 q -3.072,0 -5.376,2.304 -2.112,2.112 -2.112,5.184 v 33.216 q 0,3.072 2.112,5.376 2.304,2.112 5.376,2.112 z"
       id="text1"
       style="font-size:192px;font-family:Orbitron;-inkscape-font-specification:Orbitron;fill:#ffffff;stroke:#ffffff;stroke-width:0;stroke-linejoin:round"
       aria-label="9" />
  </g>
</svg>
