<?xml version="1.0" encoding="UTF-8" standalone="no"?>
<svg
   viewBox="0 0 512 512"
   style="height: 512px; width: 512px;"
   version="1.1"
   id="svg1"
   xml:space="preserve"
   xmlns="http://www.w3.org/2000/svg"
   xmlns:svg="http://www.w3.org/2000/svg"><defs
     id="defs1" /><g
     class=""
     transform="translate(0,0)"
     style=""
     id="g1"><path
       d="m 511.27325,0 -152.45547,30.490001 25.99686,26.001225 21.07078,21.067508 -62.08743,62.089626 c -29.94667,-24.81617 -63.38291,-35.90583 -95.07764,-35.04875 -36.99249,1.00358 -70.97206,17.43692 -96.04842,42.51328 -25.07855,25.07854 -41.63432,59.15869 -43.07956,96.39825 -1.2441,32.038 9.28146,66.03835 33.60787,96.73387 L 0,483.43979 27.833468,511.27325 197.80784,341.29451 184.16879,327.38215 c -27.02449,-27.5711 -36.27862,-55.89105 -35.25208,-82.34487 1.02763,-26.45382 13.00935,-51.52362 31.58322,-70.09749 18.57168,-18.57167 43.35724,-30.29322 69.2885,-30.99507 25.93126,-0.70294 53.61167,8.91196 80.49732,36.62299 l 13.91345,14.33762 89.51532,-89.51641 47.06873,47.06655 z"
       fill="#ffffff"
       fill-opacity="1"
       id="path1"
       style="stroke-width:1.09322" /></g><path
     d="m 207.37584,207.46205 -0.46483,33.23046 -19.75026,11.24896 0.48033,3.25383 c 9.78732,66.10969 47.76941,131.23805 111.9681,190.99501 l 3.30549,3.09888 3.30548,-3.09888 C 369.85072,386.53664 407.03742,321.20169 417.16046,255.2986 l 0.46483,-3.25383 -19.98785,-11.47106 -0.41319,-31.31946 c -61.56464,8.16041 -133.04573,6.90536 -189.84841,-1.7922 z m 9.50328,11.21283 c 16.82696,2.55659 33.50935,4.50371 50.19171,5.79493 v 16.44994 l -25.15268,14.63709 -25.34893,-14.75072 z m 170.84187,1.83867 0.25824,20.29257 -25.35925,14.75072 -25.41092,-14.77138 v -15.27753 c 16.57906,-0.84186 33.36474,-2.41196 50.51193,-4.99438 z m -110.78535,4.71548 c 16.78566,1.02264 33.57132,1.27572 50.56357,0.7334 v 14.82303 l -25.25597,14.71974 -25.3076,-14.73523 z m -65.32464,23.92345 25.40058,14.77137 v 29.64607 l -24.98739,14.56478 c -6.72461,-16.99225 -11.49173,-34.03615 -14.27039,-51.13171 z m 181.53304,0 13.89338,7.90216 c -2.84066,17.09555 -7.64394,34.13945 -14.2549,51.08006 l -25.04938,-14.56478 v -29.64607 z m -60.78991,0 25.35926,14.77137 v 29.64607 l -25.35926,14.77137 -25.15267,-14.61643 v -29.95595 z m -60.32509,0.10331 25.25598,14.66808 v 29.80101 l -25.15268,14.61647 -25.35925,-14.77139 v -29.64605 z m -29.54275,53.40422 25.4109,14.77138 v 29.64606 L 240.7819,362.8818 c -9.76151,-14.82303 -17.97358,-29.801 -24.62586,-44.88228 z m 60.53168,0 25.15266,14.66809 v 29.90429 l -25.15266,14.61644 -25.41092,-14.77138 v -29.64606 z m 60.17012,0 25.66916,14.92633 c -6.61097,15.13292 -14.71973,30.16253 -24.3263,45.03722 l -26.49551,-15.39114 v -29.90429 z m -34.34603,55.62509 21.02081,12.18898 v 13.11864 c -6.14614,8.10877 -12.70546,16.16588 -19.78126,24.17136 -7.43734,-4.33846 -14.82302,-8.72856 -22.26036,-13.067 v -24.223 z m -51.80314,0 21.02081,12.18898 v 24.17136 c -7.38568,4.33843 -15.33951,9.09007 -22.46695,13.22193 a 421.81076,421.81076 0 0 1 -19.57466,-23.55158 v -13.84171 z m 25.9274,44.88228 13.8417,8.05712 v 10.69117 c -5.83624,5.88789 -9.8648,9.91645 -13.89335,14.04831 -4.80328,-4.54504 -9.45161,-9.14174 -13.94501,-13.73842 v -10.94942 z"
     fill="#ffffff"
     fill-opacity="1"
     id="path1-1"
     style="stroke-width:0.516481" /><path
     style="fill:#ffffff;stroke:#ffffff;stroke-width:0;stroke-linejoin:round"
     d="m 276.68122,412.50655 22.91703,-11.73799 20.12227,7.82533 3.91267,17.88646 -19.00437,15.0917 z"
     id="path2" /><path
     style="fill:#ffffff;stroke:#ffffff;stroke-width:0;stroke-linejoin:round"
     d="m 248.17467,367.23144 25.71179,-15.0917 26.27075,15.65065 30.74235,-14.53275 27.38865,17.88646 -5.03057,13.41485 -22.35808,30.18341 -59.2489,-4.47162 -20.68123,-25.15284 z"
     id="path3" /><path
     style="fill:#ffffff;stroke:#ffffff;stroke-width:0;stroke-linejoin:round"
     d="m 273.88646,315.80786 26.8297,-18.44541 26.82969,17.32751 31.86026,-14.53275 24.59389,8.94323 10.62009,9.50218 -33.53712,55.33624 -84.9607,-12.85589 z"
     id="path4" /><path
     style="fill:#ffffff;stroke:#ffffff;stroke-width:0;stroke-linejoin:round"
     d="m 236.99563,364.43668 -32.97816,-62.60262 -10.06114,-48.62882 17.32751,-8.94323 3.35371,-30.74236 89.99127,8.38428 88.31441,-5.58952 0.55895,26.82969 18.44542,12.29695 -15.0917,57.57205 -155.38865,56.45415 z"
     id="path5" /></svg>
