<?xml version="1.0" encoding="UTF-8" standalone="no"?>
<svg
   viewBox="0 0 512 512"
   style="height: 512px; width: 512px;"
   version="1.1"
   id="svg1"
   xmlns="http://www.w3.org/2000/svg"
   xmlns:svg="http://www.w3.org/2000/svg">
  <defs
     id="defs1" />
  <g
     class=""
     transform="translate(0,0)"
     style=""
     id="g1">
    <path
       d="M 256,10.263734 92.313859,103.79924 256,197.33475 419.68614,103.79924 Z M 133.54947,143.84613 92.313859,167.4099 256,260.94542 419.68614,167.4099 378.45053,143.84613 256,213.81786 Z"
       fill="#ffffff"
       fill-opacity="1"
       id="path1"
       style="stroke-width:0.795134" />
    <path
       d="m 133.54946,207.28737 -41.23561,23.56377 163.68614,93.5355 163.68616,-93.5355 -41.23561,-23.56377 -122.45055,69.97173 z"
       fill="#ffffff"
       fill-opacity="1"
       id="path1-3"
       style="stroke-width:0.795134" />
    <path
       d="M 133.54946,269.48892 92.313849,293.0527 255.99999,386.5882 419.68615,293.0527 378.45054,269.48892 255.99999,339.46066 Z"
       fill="#ffffff"
       fill-opacity="1"
       id="path1-3-9"
       style="stroke-width:0.795134" />
    <path
       d="M 133.54946,330.18074 92.313849,353.74452 255.99999,447.28003 419.68615,353.74452 378.45054,330.18074 255.99999,400.15248 Z"
       fill="#ffffff"
       fill-opacity="1"
       id="path1-3-9-5"
       style="stroke-width:0.795134" />
    <path
       d="M 133.54946,390.34903 92.313849,413.9128 255.99999,507.44831 419.68615,413.9128 378.45054,390.34903 255.99999,460.32076 Z"
       fill="#ffffff"
       fill-opacity="1"
       id="path1-3-9-5-2"
       style="stroke-width:0.795134" />
  </g>
</svg>
